<mxfile host="app.diagrams.net" agent="Mozilla/5.0 (Windows NT 10.0; Win64; x64) AppleWebKit/537.36 (KHTML, like Gecko) Chrome/131.0.0.0 Safari/537.36 Edg/131.0.0.0" version="25.0.3">
  <diagram name="Page-1" id="MrnLiAWzd0GNNYvuh4Dv">
    <mxGraphModel dx="1254" dy="567" grid="1" gridSize="10" guides="1" tooltips="1" connect="1" arrows="1" fold="1" page="1" pageScale="1" pageWidth="850" pageHeight="1100" background="none" math="0" shadow="1">
      <root>
        <mxCell id="0" />
        <mxCell id="1" parent="0" />
        <mxCell id="jnrCQX4SgglYtfcMUn_V-6" value="" style="edgeStyle=orthogonalEdgeStyle;rounded=0;orthogonalLoop=1;jettySize=auto;html=1;labelBackgroundColor=none;strokeColor=#23445D;fontColor=default;" edge="1" parent="1" source="jnrCQX4SgglYtfcMUn_V-1" target="jnrCQX4SgglYtfcMUn_V-2">
          <mxGeometry relative="1" as="geometry" />
        </mxCell>
        <mxCell id="jnrCQX4SgglYtfcMUn_V-1" value="CCR" style="rounded=1;whiteSpace=wrap;html=1;labelBackgroundColor=none;fillColor=#182E3E;strokeColor=#FFFFFF;fontColor=#FFFFFF;" vertex="1" parent="1">
          <mxGeometry x="300" y="50" width="250" height="30" as="geometry" />
        </mxCell>
        <mxCell id="jnrCQX4SgglYtfcMUn_V-7" value="" style="edgeStyle=orthogonalEdgeStyle;rounded=0;orthogonalLoop=1;jettySize=auto;html=1;labelBackgroundColor=none;strokeColor=#23445D;fontColor=default;" edge="1" parent="1" source="jnrCQX4SgglYtfcMUn_V-2" target="jnrCQX4SgglYtfcMUn_V-4">
          <mxGeometry relative="1" as="geometry" />
        </mxCell>
        <mxCell id="jnrCQX4SgglYtfcMUn_V-2" value="MATERIALS" style="whiteSpace=wrap;html=1;labelBackgroundColor=none;fillColor=#182E3E;strokeColor=#FFFFFF;fontColor=#FFFFFF;" vertex="1" parent="1">
          <mxGeometry x="380" y="145" width="90" height="30" as="geometry" />
        </mxCell>
        <mxCell id="jnrCQX4SgglYtfcMUn_V-9" value="" style="edgeStyle=orthogonalEdgeStyle;rounded=0;orthogonalLoop=1;jettySize=auto;html=1;labelBackgroundColor=none;strokeColor=#23445D;fontColor=default;" edge="1" parent="1" source="jnrCQX4SgglYtfcMUn_V-3" target="jnrCQX4SgglYtfcMUn_V-5">
          <mxGeometry relative="1" as="geometry" />
        </mxCell>
        <mxCell id="jnrCQX4SgglYtfcMUn_V-3" value="(APPLIES) VCR" style="whiteSpace=wrap;html=1;labelBackgroundColor=none;fillColor=#182E3E;strokeColor=#FFFFFF;fontColor=#FFFFFF;" vertex="1" parent="1">
          <mxGeometry x="370" y="350" width="110" height="30" as="geometry" />
        </mxCell>
        <mxCell id="jnrCQX4SgglYtfcMUn_V-8" value="" style="edgeStyle=orthogonalEdgeStyle;rounded=0;orthogonalLoop=1;jettySize=auto;html=1;labelBackgroundColor=none;strokeColor=#23445D;fontColor=default;" edge="1" parent="1" source="jnrCQX4SgglYtfcMUn_V-4" target="jnrCQX4SgglYtfcMUn_V-3">
          <mxGeometry relative="1" as="geometry" />
        </mxCell>
        <mxCell id="jnrCQX4SgglYtfcMUn_V-4" value="CORRECTIVE ACTIONS" style="whiteSpace=wrap;html=1;labelBackgroundColor=none;fillColor=#182E3E;strokeColor=#FFFFFF;fontColor=#FFFFFF;" vertex="1" parent="1">
          <mxGeometry x="345" y="240" width="160" height="30" as="geometry" />
        </mxCell>
        <mxCell id="jnrCQX4SgglYtfcMUn_V-5" value="(APPLIES) RMA" style="whiteSpace=wrap;html=1;labelBackgroundColor=none;fillColor=#182E3E;strokeColor=#FFFFFF;fontColor=#FFFFFF;" vertex="1" parent="1">
          <mxGeometry x="370" y="470" width="110" height="30" as="geometry" />
        </mxCell>
      </root>
    </mxGraphModel>
  </diagram>
</mxfile>
